<svg xmlns="http://www.w3.org/2000/svg" viewBox="0 0 1055.62 181.12"><path d="M170.1,71.92H102.76a3.22,3.22,0,0,0-3.22,3.22v24.4a3.22,3.22,0,0,0,3.22,3.21h31.51v21.4s-8.48,5.64-25,5.64c-22.84,0-44-17.18-44-42.12,0-24.61,21.07-42.08,43.91-42.08,11.77,0,24.43,4.39,34.35,10.12a5,5,0,0,0,6.62-1.47l14.9-24.39a4.37,4.37,0,0,0-1.23-6.06c-11.23-7.64-30.79-15.92-54.18-15.92C61.27,7.87,23.05,43.33,23.14,87s38.38,79.2,86.78,79.2c21.19,0,45.82-6.95,61.52-19.27,2.26-1.77,2.22-1.76,2.22-4.61l.08-66.8A3.64,3.64,0,0,0,170.1,71.92Z" style="fill:#fff"/><path d="M248,44.25c-34.9,0-63.17,27.5-63.17,61.41S213.1,167.11,248,167.11s63.13-27.54,63.13-61.45S282.86,44.25,248,44.25Zm0,85.16c-13.47,0-24.39-10.62-24.39-23.73S234.51,82,248,82s24.39,10.62,24.39,23.72S261.45,129.41,248,129.41Z" style="fill:#fff"/><path d="M449.94,11.31H416.83a3.11,3.11,0,0,0-3.31,2.85V89.9l-81.81-71c-3.67-3.19-9.5-.65-9.5,4.14v137a3.11,3.11,0,0,0,3.31,2.86h33.25a3.1,3.1,0,0,0,3.31-2.86V94.24L443.74,165c3.68,3.18,9.5.64,9.5-4.15V14.16A3.1,3.1,0,0,0,449.94,11.31Z" style="fill:#fff"/><path d="M698.27,135.15a4,4,0,0,0-6-1,85,85,0,0,1-95,7.88,4,4,0,0,0-5.34,1.44l-10.41,18a3.7,3.7,0,0,0,1.38,5.09,114.91,114.91,0,0,0,124.9-8.33,3.69,3.69,0,0,0,.94-4.83Z" style="fill:#fff"/><path d="M482.42,51.79a5.52,5.52,0,0,0,7.32-.43A76.54,76.54,0,0,1,528,30.76a78.81,78.81,0,0,1,11.4-1.56,3.35,3.35,0,0,0,3.17-3.34V3.4a3.49,3.49,0,0,0-3.7-3.4,105.41,105.41,0,0,0-17.14,2.2A102,102,0,0,0,468.6,31.84a4.29,4.29,0,0,0,.24,6.33Z" style="fill:#fff"/><path d="M584.23,109.29a68.38,68.38,0,0,0,54,26.1c37.44,0,67.8-29.58,67.8-66s-30.36-66-67.8-66-67.85,29.54-67.85,66c0,1.31.05,2.6.13,3.89a60.5,60.5,0,0,0-46.23-21.19c-33.14,0-60,26.11-60,58.31s26.84,58.36,60,58.36,60-26.15,60-58.36C584.26,110,584.24,109.66,584.23,109.29Zm49.42-65.24c15.35,0,27.79,12.1,27.8,27s-12.45,27-27.8,27-27.79-12.1-27.79-27S618.3,44.05,633.65,44.05ZM529.12,134.54c-13.78,0-24.95-10.86-24.95-24.26S515.34,86,529.12,86s24.94,10.86,24.94,24.27S542.89,134.54,529.12,134.54Z" style="fill:#fff"/><path d="M841.46,11.31H808.32A3.11,3.11,0,0,0,805,14.17V62.34c-9.9-11.19-23.6-18.12-38.73-18.12-30.2,0-54.69,27.59-54.69,61.62s24.49,61.61,54.69,61.61c18.81,0,35.39-10.7,45.24-27h1.19v19.61a3.11,3.11,0,0,0,3.31,2.86h25.44a3.11,3.11,0,0,0,3.31-2.86V14.17A3.11,3.11,0,0,0,841.46,11.31ZM776.38,129.14c-13.32,0-24.11-10.5-24.11-23.46s10.79-23.45,24.11-23.45,24.12,10.5,24.12,23.45S789.7,129.14,776.38,129.14Z" style="fill:#fff"/><path d="M896.78,11.31H863.63a3.11,3.11,0,0,0-3.3,2.86V160.08a3.11,3.11,0,0,0,3.3,2.86h33.15a3.11,3.11,0,0,0,3.31-2.86V14.17A3.11,3.11,0,0,0,896.78,11.31Z" style="fill:#fff"/><path d="M971.53,45.13c-33.65,0-60.32,27.23-60.32,59.06,0,34.21,28.45,64.18,66.36,64.18,20.88,0,38.61-8.48,50.12-21.16a4.07,4.07,0,0,0-.21-5.7l-13.6-15.84a5.39,5.39,0,0,0-6.58-.26c-7.06,5.1-15.88,9.86-26.34,9.86-26,0-29-22.37-29-22.37l77.44,0a3,3,0,0,0,3.06-2.87c.06-1.42.09-2.66.09-3.58C1032.54,72.22,1006.69,45.13,971.53,45.13ZM952,94c0-12.14,8.81-20.75,21.27-20.75S994.49,82.66,994.49,94Z" style="fill:#fff"/><path d="M1049.8,151.28a3.28,3.28,0,0,0-3.28-3.28h-3.91v10.65h1.89v-4.09h.75l2.72,4.09h2.27l-2.81-4.24A3.27,3.27,0,0,0,1049.8,151.28Zm-5.3,1.38v-2.77h2a1.39,1.39,0,1,1,0,2.77Z" style="fill:#fff"/><path d="M1046,143.71a9.62,9.62,0,1,0,9.62,9.62A9.62,9.62,0,0,0,1046,143.71Zm0,17.34a7.73,7.73,0,1,1,7.72-7.72A7.72,7.72,0,0,1,1046,161.05Z" style="fill:#fff"/><rect y="103.55" width="23.14" height="14.33" style="fill:none"/></svg>